<?xml version="1.0" encoding="UTF-8" standalone="no"?>
<!-- Uploaded to: SVG Repo, www.svgrepo.com, Generator: SVG Repo Mixer Tools -->

<svg
   fill="#000000"
   version="1.1"
   id="Capa_1"
   width="800px"
   height="800px"
   viewBox="0 0 550.801 550.801"
   xml:space="preserve"
   sodipodi:docname="midiicon.svg"
   inkscape:version="1.2 (dc2aedaf03, 2022-05-15)"
   xmlns:inkscape="http://www.inkscape.org/namespaces/inkscape"
   xmlns:sodipodi="http://sodipodi.sourceforge.net/DTD/sodipodi-0.dtd"
   xmlns="http://www.w3.org/2000/svg"
   xmlns:svg="http://www.w3.org/2000/svg"><defs
   id="defs13">
	
	
	
</defs><sodipodi:namedview
   id="namedview11"
   pagecolor="#ffffff"
   bordercolor="#000000"
   borderopacity="0.25"
   inkscape:showpageshadow="2"
   inkscape:pageopacity="0.0"
   inkscape:pagecheckerboard="0"
   inkscape:deskcolor="#d1d1d1"
   showgrid="false"
   inkscape:zoom="1.04625"
   inkscape:cx="264.75508"
   inkscape:cy="400.4779"
   inkscape:window-width="1920"
   inkscape:window-height="1017"
   inkscape:window-x="-8"
   inkscape:window-y="-8"
   inkscape:window-maximized="1"
   inkscape:current-layer="Capa_1" />
<path
   id="path6"
   d="M 97.199702,0 C 85.281738,0 75.600665,9.6924177 75.600665,21.600382 V 197.01356 H 62.3766 c -17.048949,0 -30.872289,13.81869 -30.872289,30.87363 V 388.4317 c 0,17.04294 13.82334,30.87094 30.872289,30.87094 h 13.224065 v 109.89798 c 0,11.90697 9.682418,21.60038 21.600382,21.60038 H 453.6013 c 11.90697,0 21.59904,-9.69241 21.59904,-21.60038 V 419.30264 h 13.22675 c 17.04394,0 30.87094,-13.828 30.87094,-30.87094 V 227.89257 c -0.001,-17.05394 -13.82834,-30.87363 -30.87228,-30.87363 h -13.22541 v -63.81546 c 0,-0.398 -0.064,-0.79919 -0.117,-1.20219 -0.021,-2.534 -0.82673,-5.02328 -2.5617,-6.99528 L 366.32435,3.6939706 c -0.032,-0.031 -0.0627,-0.041305 -0.0847,-0.075305 -0.633,-0.7069976 -1.37022,-1.2956278 -2.15022,-1.8046263 -0.231,-0.1549994 -0.46398,-0.285556 -0.70598,-0.4195554 -0.676,-0.3689991 -1.3934,-0.6745902 -2.1314,-0.89558954 -0.2,-0.0559998 -0.37957,-0.13760694 -0.57957,-0.18960679 C 359.87046,0.11928824 359.03675,0 358.19278,0 Z m 0,21.604416 H 347.39326 V 132.11828 c 0,5.96697 4.84052,10.79952 10.79952,10.79952 h 95.40717 v 54.10786 H 97.199702 Z m 0,397.698224 H 453.59995 V 523.35239 H 97.199702 Z"
   sodipodi:nodetypes="sscsssscsssscsscscsccccccccssccssccccccccc" />
<text
   xml:space="preserve"
   style="font-size:224.91px;font-family:Arial;-inkscape-font-specification:Arial;fill:#000000;stroke-width:1.377;stop-color:#000000"
   x="35.535553"
   y="389.57492"
   id="text437"><tspan
     sodipodi:role="line"
     id="tspan435"
     x="35.535553"
     y="389.57492"
     style="font-style:normal;font-variant:normal;font-weight:bold;font-stretch:normal;font-size:224.91px;font-family:Arial;-inkscape-font-specification:'Arial Bold';fill:#ffffff;fill-opacity:1;stroke-width:1.377">MIDI</tspan></text></svg>
