<?xml version="1.0" encoding="UTF-8" standalone="no"?>
<!-- Uploaded to: SVG Repo, www.svgrepo.com, Generator: SVG Repo Mixer Tools -->

<svg
   fill="#000000"
   version="1.1"
   id="Capa_1"
   width="800px"
   height="800px"
   viewBox="0 0 550.801 550.801"
   xml:space="preserve"
   sodipodi:docname="midiicon.svg"
   inkscape:version="1.2 (dc2aedaf03, 2022-05-15)"
   xmlns:inkscape="http://www.inkscape.org/namespaces/inkscape"
   xmlns:sodipodi="http://sodipodi.sourceforge.net/DTD/sodipodi-0.dtd"
   xmlns="http://www.w3.org/2000/svg"
   xmlns:svg="http://www.w3.org/2000/svg"><defs
   id="defs13">
	
	
	
</defs><sodipodi:namedview
   id="namedview11"
   pagecolor="#ffffff"
   bordercolor="#000000"
   borderopacity="0.25"
   inkscape:showpageshadow="2"
   inkscape:pageopacity="0.0"
   inkscape:pagecheckerboard="0"
   inkscape:deskcolor="#d1d1d1"
   showgrid="false"
   inkscape:zoom="1.04625"
   inkscape:cx="264.75508"
   inkscape:cy="400.4779"
   inkscape:window-width="1920"
   inkscape:window-height="1017"
   inkscape:window-x="-8"
   inkscape:window-y="-8"
   inkscape:window-maximized="1"
   inkscape:current-layer="Capa_1" />
<path
   id="path6"
   d="M 97.199702 0 C 85.28175 0 75.600665 9.6924296 75.600665 21.600382 L 75.600665 197.01356 L 62.3766 197.01356 C 45.327668 197.01356 31.504311 210.83227 31.504311 227.88719 L 31.504311 388.4317 C 31.504311 405.47462 45.327668 419.30264 62.3766 419.30264 L 75.600665 419.30264 L 75.600665 529.20062 C 75.600665 541.10758 85.283095 550.801 97.201047 550.801 L 453.6013 550.801 C 465.50826 550.801 475.20034 541.10858 475.20034 529.20062 L 475.20034 419.30264 L 488.42709 419.30264 C 505.47101 419.30264 519.29803 405.47462 519.29803 388.4317 L 519.29803 227.89257 C 519.29703 210.83865 505.46967 197.01894 488.42575 197.01894 L 475.20034 197.01894 L 475.20034 133.20348 C 475.20034 132.80548 475.13634 132.40429 475.08334 132.00129 C 475.06234 129.46729 474.2566 126.97801 472.52164 125.00601 L 366.32435 3.6939706 C 366.29235 3.6629706 366.26163 3.6526657 366.23963 3.6186657 C 365.60663 2.9116689 364.86941 2.3230374 364.08941 1.8140394 C 363.85841 1.6590402 363.62543 1.5284832 363.38343 1.394484 C 362.70743 1.0254852 361.99003 0.71989358 361.25203 0.49889446 C 361.05203 0.44289472 360.87246 0.36128747 360.67246 0.30928767 C 359.87044 0.11928853 359.03674 0 358.19278 0 L 97.199702 0 z M 97.199702 21.604416 L 347.39326 21.604416 L 347.39326 132.11828 C 347.39326 138.08524 352.23378 142.9178 358.19278 142.9178 L 453.59995 142.9178 L 453.59995 197.02566 L 97.199702 197.02566 L 97.199702 21.604416 z M 51.458745 228.57973 L 100.1097 228.57973 L 129.32124 338.39971 L 158.20333 228.57973 L 206.96321 228.57973 L 206.96321 389.57472 L 176.76328 389.57472 L 176.76328 262.84342 L 144.8058 389.57472 L 113.50723 389.57472 L 81.660013 262.84342 L 81.660013 389.57472 L 51.458745 389.57472 L 51.458745 228.57973 z M 238.26177 228.57973 L 270.76791 228.57973 L 270.76791 389.57472 L 238.26177 389.57472 L 238.26177 228.57973 z M 301.62809 228.57973 L 361.03957 228.57973 C 374.43751 228.57973 384.65079 229.60516 391.67922 231.65512 C 401.12367 234.43721 409.21465 239.37911 415.95023 246.48076 C 422.68581 253.5824 427.8103 262.2939 431.32452 272.61691 C 434.83873 282.86671 436.59586 295.53308 436.59586 310.61492 C 436.59586 323.86644 434.94855 335.28773 431.65398 344.87861 C 427.62727 356.59266 421.87957 366.07425 414.41186 373.32232 C 408.77447 378.81328 401.16117 383.09492 391.57029 386.16986 C 384.39544 388.43946 374.80403 389.57472 362.79713 389.57472 L 301.62809 389.57472 L 301.62809 228.57973 z M 463.17173 228.57973 L 495.67921 228.57973 L 495.67921 389.57472 L 463.17173 389.57472 L 463.17173 228.57973 z M 334.13423 255.81452 L 334.13423 362.45019 L 358.4039 362.45019 C 367.48229 362.45019 374.03579 361.9368 378.06249 360.91182 C 383.33381 359.59399 387.68957 357.36187 391.13057 354.21372 C 394.64478 351.06557 397.50011 345.90402 399.69649 338.72917 C 401.89288 331.4811 402.99108 321.633 402.99108 309.18682 C 402.99108 296.74064 401.89288 287.18628 399.69649 280.52392 C 397.50011 273.86155 394.42514 268.66429 390.47165 264.93044 C 386.51816 261.19659 381.50349 258.67072 375.42682 257.35289 C 370.88763 256.32791 361.9922 255.81452 348.74068 255.81452 L 334.13423 255.81452 z M 97.199702 419.30264 L 453.59995 419.30264 L 453.59995 523.35239 L 97.199702 523.35239 L 97.199702 419.30264 z " />
</svg>
