<?xml version="1.0" encoding="UTF-8" standalone="no"?>
<!-- Uploaded to: SVG Repo, www.svgrepo.com, Generator: SVG Repo Mixer Tools -->

<svg
   fill="#000000"
   version="1.1"
   id="Capa_1"
   width="800px"
   height="800px"
   viewBox="0 0 550.801 550.801"
   xml:space="preserve"
   sodipodi:docname="pdf-file-format-symbol-svgrepo-com - Copy.svg"
   inkscape:version="1.2 (dc2aedaf03, 2022-05-15)"
   xmlns:inkscape="http://www.inkscape.org/namespaces/inkscape"
   xmlns:sodipodi="http://sodipodi.sourceforge.net/DTD/sodipodi-0.dtd"
   xmlns="http://www.w3.org/2000/svg"
   xmlns:svg="http://www.w3.org/2000/svg"><defs
   id="defs13" /><sodipodi:namedview
   id="namedview11"
   pagecolor="#ffffff"
   bordercolor="#000000"
   borderopacity="0.25"
   inkscape:showpageshadow="2"
   inkscape:pageopacity="0.0"
   inkscape:pagecheckerboard="0"
   inkscape:deskcolor="#d1d1d1"
   showgrid="false"
   inkscape:zoom="1.04625"
   inkscape:cx="257.58662"
   inkscape:cy="399.5221"
   inkscape:window-width="1920"
   inkscape:window-height="1017"
   inkscape:window-x="-8"
   inkscape:window-y="-8"
   inkscape:window-maximized="1"
   inkscape:current-layer="Capa_1" />
<g
   id="g8">
	<path
   d="M160.381,282.225c0-14.832-10.299-23.684-28.474-23.684c-7.414,0-12.437,0.715-15.071,1.432V307.6   c3.114,0.707,6.942,0.949,12.192,0.949C148.419,308.549,160.381,298.74,160.381,282.225z"
   id="path2" />
	<path
   d="M272.875,259.019c-8.145,0-13.397,0.717-16.519,1.435v105.523c3.116,0.729,8.142,0.729,12.69,0.729   c33.017,0.231,54.554-17.946,54.554-56.474C323.842,276.719,304.215,259.019,272.875,259.019z"
   id="path4" />
	<path
   d="M 488.426,197.019 H 475.2 v -63.816 c 0,-0.398 -0.063,-0.799 -0.116,-1.202 -0.021,-2.534 -0.827,-5.023 -2.562,-6.995 L 366.325,3.694 C 366.293,3.663 366.262,3.652 366.24,3.618 365.607,2.911 364.869,2.323 364.089,1.814 363.858,1.659 363.625,1.529 363.383,1.395 362.707,1.026 361.99,0.72 361.252,0.499 c -0.2,-0.056 -0.38,-0.138 -0.58,-0.19 C 359.87,0.119 359.037,0 358.193,0 H 97.2 C 85.282,0 75.6,9.693 75.6,21.601 V 197.014 H 62.377 c -17.049,0 -30.873,13.818 -30.873,30.873 v 160.545 c 0,17.043 13.824,30.87 30.873,30.87 H 75.601 V 529.2 c 0,11.907 9.682,21.601 21.6,21.601 h 356.4 c 11.907,0 21.6,-9.693 21.6,-21.601 V 419.302 h 13.226 c 17.044,0 30.871,-13.827 30.871,-30.87 V 227.892 C 519.297,210.838 505.47,197.019 488.426,197.019 Z M 97.2,21.605 h 250.193 v 110.513 c 0,5.967 4.841,10.8 10.8,10.8 H 453.6 v 54.108 H 97.2 Z M 453.601,523.353 H 97.2 V 419.302 h 356.4 v 104.051 z"
   id="path6"
   sodipodi:nodetypes="scsccccccccssscsssscsssscsscsccsscccccccccc" />
</g>
<text
   xml:space="preserve"
   style="font-weight:bold;font-size:229.5px;font-family:Roboto;-inkscape-font-specification:'Roboto Bold';text-align:center;text-anchor:middle;fill:#ffffff;stroke-width:2.60221;stop-color:#000000"
   x="275.07147"
   y="391.5491"
   id="text576"><tspan
     sodipodi:role="line"
     id="tspan574"
     x="275.07147"
     y="391.5491"
     style="font-size:229.5px;stroke-width:2.60221">XML</tspan></text></svg>
