<?xml version="1.0" encoding="UTF-8" standalone="no"?>
<!-- Uploaded to: SVG Repo, www.svgrepo.com, Generator: SVG Repo Mixer Tools -->

<svg
   fill="#000000"
   version="1.1"
   id="Capa_1"
   width="800px"
   height="800px"
   viewBox="0 0 550.801 550.801"
   xml:space="preserve"
   sodipodi:docname="svgicon.svg"
   inkscape:version="1.2 (dc2aedaf03, 2022-05-15)"
   xmlns:inkscape="http://www.inkscape.org/namespaces/inkscape"
   xmlns:sodipodi="http://sodipodi.sourceforge.net/DTD/sodipodi-0.dtd"
   xmlns="http://www.w3.org/2000/svg"
   xmlns:svg="http://www.w3.org/2000/svg"><defs
   id="defs13">
	
	
	
</defs><sodipodi:namedview
   id="namedview11"
   pagecolor="#ffffff"
   bordercolor="#000000"
   borderopacity="0.25"
   inkscape:showpageshadow="2"
   inkscape:pageopacity="0.0"
   inkscape:pagecheckerboard="0"
   inkscape:deskcolor="#d1d1d1"
   showgrid="false"
   inkscape:zoom="1.04625"
   inkscape:cx="406.69056"
   inkscape:cy="399.5221"
   inkscape:window-width="1920"
   inkscape:window-height="1017"
   inkscape:window-x="-8"
   inkscape:window-y="-8"
   inkscape:window-maximized="1"
   inkscape:current-layer="Capa_1" />
<path
   id="path6"
   d="M 97.199702 0 C 85.281738 0 75.600665 9.6924177 75.600665 21.600382 L 75.600665 197.01356 L 62.3766 197.01356 C 45.327651 197.01356 31.504311 210.83225 31.504311 227.88719 L 31.504311 388.4317 C 31.504311 405.47464 45.327651 419.30264 62.3766 419.30264 L 75.600665 419.30264 L 75.600665 529.20062 C 75.600665 541.10759 85.283083 550.801 97.201047 550.801 L 453.6013 550.801 C 465.50827 550.801 475.20034 541.10859 475.20034 529.20062 L 475.20034 419.30264 L 488.42709 419.30264 C 505.47103 419.30264 519.29803 405.47464 519.29803 388.4317 L 519.29803 227.89257 C 519.29703 210.83863 505.46969 197.01894 488.42575 197.01894 L 475.20034 197.01894 L 475.20034 133.20348 C 475.20034 132.80548 475.13634 132.40429 475.08334 132.00129 C 475.06234 129.46729 474.25661 126.97801 472.52164 125.00601 L 366.32435 3.6939706 C 366.29235 3.6629706 366.26163 3.6526657 366.23963 3.6186657 C 365.60663 2.9116681 364.86941 2.3230379 364.08941 1.8140394 C 363.85841 1.65904 363.62543 1.5284834 363.38343 1.394484 C 362.70743 1.0254849 361.99003 0.7198938 361.25203 0.49889446 C 361.05203 0.44289464 360.87246 0.36128752 360.67246 0.30928767 C 359.87046 0.11928824 359.03675 0 358.19278 0 L 97.199702 0 z M 97.199702 21.604416 L 347.39326 21.604416 L 347.39326 132.11828 C 347.39326 138.08525 352.23378 142.9178 358.19278 142.9178 L 453.59995 142.9178 L 453.59995 197.02566 L 97.199702 197.02566 L 97.199702 21.604416 z M 43.274724 228.38877 L 81.935683 228.38877 L 112.63988 285.31519 L 143.34408 228.38877 L 181.78047 228.38877 L 134.38011 309.29708 L 183.01358 391.54878 L 144.24101 391.54878 L 112.63988 333.50221 L 81.038749 391.54878 L 42.041608 391.54878 L 90.899646 309.29708 L 43.274724 228.38877 z M 199.93431 228.38877 L 228.28657 228.38877 L 243.75096 228.38877 L 285.66078 348.18127 L 327.57195 228.38877 L 356.03583 228.38877 L 371.50021 228.38877 L 371.50021 391.54878 L 337.88199 391.54878 L 337.88199 345.15563 L 341.22633 269.38015 L 297.09098 391.54878 L 274.23059 391.54878 L 230.09658 269.38149 L 233.44092 345.15563 L 233.44092 391.54878 L 199.93431 391.54878 L 199.93431 228.38877 z M 400.85968 228.38877 L 434.47791 228.38877 L 434.47791 365.32656 L 505.74854 365.32656 L 505.74854 391.54878 L 434.47791 391.54878 L 400.85968 391.54878 L 400.85968 228.38877 z M 97.199702 419.30264 L 453.59995 419.30264 L 453.59995 523.35239 L 97.199702 523.35239 L 97.199702 419.30264 z " />
</svg>
